<?xml version="1.0" encoding="utf-8"?>
<!-- Generator: Adobe Illustrator 21.1.0, SVG Export Plug-In . SVG Version: 6.00 Build 0)  -->
<svg version="1.1" id="Layer_1" xmlns="http://www.w3.org/2000/svg" xmlns:xlink="http://www.w3.org/1999/xlink" x="0px" y="0px"
	 viewBox="0 0 833.2 633.1" style="enable-background:new 0 0 833.2 633.1;" xml:space="preserve">
<style type="text/css">
	.st0{fill:#F2F2F2;}
	.st1{fill:#003865;}
	.st2{fill:#2F2E41;}
	.st3{fill:#FFB6B6;}
	.st4{fill:#A0616A;}
	.st5{fill:#39B54A;}
	.st6{fill:#EF5B0C;}
	.st7{fill:#FFB8B8;}
	.st8{fill:#FFFFFF;}
</style>
<g>
	<path class="st0" d="M759.7,565.7c-26.4,20.1-58.5,40.4-90.1,50c-9.1,2.8-18.5,4.7-28,5.4c-8.9,0.7-17.8,0-26.5-2.1
		c-22.8-5.7-44-15.6-64.4-27.2c-6.7-3.8-13.3-7.8-19.9-11.8c-10.7-6.6-21.3-13.5-32-20.2c-1.6-1-3.2-2-4.8-3h0
		c-2.6-1.6-5.1-3.2-7.7-4.8c-0.5-0.3-0.9-0.6-1.4-0.8c-4.9-3-9.8-5.8-14.9-8.7c-0.6-0.3-1.2-0.7-1.9-1c-9.8-5.4-19.8-10.3-30.1-14.7
		c-6.7-2.8-13.6-5.4-20.5-7.6h0c-2.6-0.8-5.3-1.6-7.9-2.3c-8-2.2-16.1-3.8-24.3-4.8c-11.3-1.4-22.7-1.3-34,0.3
		c-0.8,0.1-1.5,0.2-2.3,0.3c-30.5,4.9-58.4,21.4-89.1,25.3c-1,0.1-2,0.2-3,0.3c-0.4,0-0.9,0.1-1.3,0.1c-8.9,0.8-17.9,0.5-26.7-0.7
		c-24.8-3.3-48.9-13.4-70.6-26.2c-50.8-29.9-91.9-75.8-116.9-128.9c-4.3-9.1-8.1-18.4-11.4-28c-9.3-26.4-14.4-54-15.1-82
		c-2.3-97,52.8-194.3,139.3-238.1c86.5-43.9,200.4-29.4,270.1,38c42.3,40.9,66.8,96.3,98.7,145.7c31.9,49.5,77.1,96.7,135.5,103.9
		c29.8,3.7,60.9-3.4,89.4,5.8c15.8,5.1,29.3,14.9,40.1,27.4c7.3,8.5,13.4,17.9,18.1,28c3.5,7.3,6.3,14.9,8.4,22.7
		c0.4,1.4,0.8,2.9,1.1,4.3C829.9,468.7,807.2,529.5,759.7,565.7z"/>
	<path class="st1" d="M193.7,460.7h90.8c13.6,0,24.6,11,24.6,24.6v0c0,13.6-11,24.6-24.6,24.6h-90.8c-13.6,0-24.6-11-24.6-24.6v0
		C169.1,471.7,180.1,460.7,193.7,460.7z"/>
	<path class="st1" d="M257,497.4v41c-9.3,0.9-18.7,0.7-28-0.5v-40.5H257z"/>
	<path class="st2" d="M351.3,512.4c-0.8,0.1-1.5,0.2-2.3,0.3c-30.5,4.9-58.4,21.4-89.1,25.3c-1,0.1-2,0.2-3,0.3
		c-0.4,0-0.9,0.1-1.3,0.1c-7.5-7.3-15-15.1-22-23.2c-3.8-4.4-7.5-8.8-11-13.4c-9-11.7-16.6-23.7-21.7-35.5c0.5-5.7-3-18.7-4.7-28.7
		l0,0c-0.7-4.2-1.1-7.9-0.7-10.2c2-13.5,13.1-12,16.5-25.3c3.1-2.5,6.3-4.8,9.8-6.9c0.6-0.3,1.1-0.7,1.7-1l36.9-25.5l14.1,13.8
		l21.5,21.1l23.3,22.8l-19.7,20c0,0,16.5,19,35.8,44.4C340.6,497.7,346,505,351.3,512.4z"/>
	<path class="st1" d="M669.6,497.4v118.3c-9.1,2.8-18.5,4.7-28,5.4V497.4L669.6,497.4z"/>
	<path class="st1" d="M615,487.7h90.8c13.6,0,24.6,11,24.6,24.6l0,0c0,13.6-11,24.6-24.6,24.6H615c-13.6,0-24.6-11-24.6-24.6l0,0
		C590.4,498.7,601.4,487.7,615,487.7z"/>
	<path class="st3" d="M484.9,551.2c-4.9-3-9.8-5.8-14.9-8.7c-0.6-0.3-1.2-0.7-1.9-1l3.3-1.4l9-3.9l0.1,0l0.1,0.3L484.9,551.2z"/>
	<path class="st2" d="M498.8,559.8c-1.6-1-3.2-2-4.8-3h0c-2.6-1.6-5.1-3.2-7.7-4.8c-0.5-0.3-0.9-0.6-1.4-0.8
		c-4.9-3-9.8-5.8-14.9-8.7c-0.6-0.3-1.2-0.7-1.9-1c-9.8-5.4-19.8-10.3-30.1-14.7c-6.7-2.8-13.6-5.4-20.5-7.6h0l-5.4-9.1l-24.4-40.9
		l-5.4-9c0,0-18.3,5.4-44.2,10.6c-9.4,1.9-19.8,3.7-30.8,5.3c-11.7,1.7-23.9,3-36.1,3.6c-5.8,0.3-11.6,0.5-17.3,0.4
		c-14.7-0.1-28.9-1.5-41.3-4.8c-4.1-3.9-16.6-9.2-25.5-14h0c-3.7-2-6.9-4-8.5-5.7c-9.4-10-1.4-17.7-9.7-28.6c-0.1-4,0.1-8,0.6-11.9
		c0.1-0.7,0.2-1.3,0.3-2l2.6-44.8l19.6-2.6l29.8-3.9l32.3-4.3l3.6,27.8c0,0,25.2-1.3,57-0.9c51.2,0.7,119.7,5.8,128.9,27.7
		c0.9,2.1,1.7,4.1,2.6,6.2c2.1,5,4.1,10,6.1,15c7.4,18.2,14.4,36.5,20.8,53.8c4,10.8,7.7,21.2,11.2,30.9c2.8,7.8,5.3,15.2,7.7,22
		c2.1,6.2,4.1,12,5.8,17.1C498.2,558.3,498.5,559.1,498.8,559.8z"/>
	<path class="st4" d="M318.5,288.4l-61.9-52.6l40.3-40.8l28.1,46l104.1,20.6c8.9-6.7,21.6-4.9,28.3,4c6.7,8.9,4.9,21.6-4,28.3
		c-8.4,6.3-20.2,5.2-27.2-2.6L318.5,288.4z"/>
	<g>
		<path class="st5" d="M201.9,166.8c-7.2,23.3,61,78.8,61,78.8c0.8-5.6,39.4,42.6,42,38.2c7.5-12.4,15.7-43,24.3-47
			c4.9-2.2-23.4-33.4-23.4-33.4s-14.4-19.1-33.5-43.3c-10.7-14.1-27.9-21.7-45.5-20.3C226.9,139.9,209.1,143.5,201.9,166.8z"/>
	</g>
	<circle class="st4" cx="232" cy="73.4" r="41.9"/>
	<g>
		<path class="st5" d="M253,142.9c9,5.4,14.4,15.2,17.5,25.2c5.7,18.6,9.2,37.7,10.3,57.1l3.3,58.1L324.5,407
			c-35.1,29.7-167.1,6.8-167.1,6.8s-4.1-1.4,0-5.4s8-0.5,3.9-4.5c-4.1-4.1-1.3,0.5,0.1-3.6s0-1.4-1.4-2.7s10.5-13.5,10.5-13.5
			l-10.8-71L146.3,170c16.2-20.3,48.8-32.2,48.8-32.2l8.4-15.2l42.1,3.4L253,142.9z"/>
	</g>
	<path class="st2" d="M266.5,51.2c3.3,2.4,5.7,5.8,6.9,9.7c0.5-6.3,0.5-12.7,0.1-19c-0.5-4.4-3.6-5.4-7.2-6.6c-3.3-1-7-2.2-8-6.5
		c-13.2-12.8-36.1-12.2-51.7-7.7c-8.6,2.5-13.6,5.6-14,7.5l-0.1,0.4l-0.4,0.2c-6.6,3.3-7.9,13.8-7.9,22c0.2,15.5,5.5,33.1,8.5,34.5
		c0.2,0.1,0.2,0,0.3,0l0,0c4.5-3.6,10.1,0.3,12.5,2.4c3-19.8,19-35.1,39-36.9c3.2-0.3,6.3-0.8,9.4-1.6c1.6-0.4,3.2-0.6,4.8-0.6
		C261.5,48.8,264.2,49.6,266.5,51.2z"/>
	<g>
		<path class="st6" d="M213.8,351.5L201,345c-1.6-1.1-1.9-3.3-0.8-4.9c0.9-1.3,2.5-1.8,4-1.3l12.8,6.6c1.6,1.1,1.9,3.3,0.8,4.9
			C216.9,351.5,215.3,352,213.8,351.5L213.8,351.5z"/>
	</g>
	<path class="st4" d="M170.7,333.9l-21.1-78.4l56.3-10.7l-3,53.8l74,76.2c11.1-0.5,20.5,8.2,21,19.4c0.5,11.1-8.2,20.5-19.4,21
		c-10.5,0.4-19.5-7.2-20.9-17.6L170.7,333.9z"/>
	<g>
		<path class="st5" d="M143.9,167.6c-19.1,15.1,5.4,99.5,5.4,99.5c3.8-4.2,8.2,57.4,12.9,55.3c13.2-6,37.4-26.5,46.7-24.8
			c5.3,1-0.3-40.7-0.3-40.7s-1-23.9-3-54.6c-0.8-17.7-10.6-33.7-25.9-42.5C179.7,159.6,163,152.5,143.9,167.6z"/>
	</g>
	<path class="st1" d="M806.1,383.6l-764.7-0.9c-4.3-9.1-8.1-18.4-11.4-28l758,0.8C795.3,364,801.4,373.5,806.1,383.6z"/>
	<path class="st3" d="M562.6,586.3c-4,1.9-7.9,3.8-12,5.5c-6.7-3.8-13.3-7.8-19.9-11.8l24.4-10.7L562.6,586.3z"/>
	<path class="st2" d="M740.3,453.2c-4,5.3-8,10.5-12.3,15.6c-3.9,4.7-7.9,9.3-12,13.8c-1.7,1.9-3.4,3.7-5.2,5.6
		c-3.2,3.4-6.5,6.8-9.9,10.2c-6,1.9-18.3,5.3-31.4,8.4c-9.6,2.3-19.6,4.4-28,5.8c-4.7,0.8-9.5,1.4-14.3,1.5
		c-5.7,0-11.5-0.1-17.3-0.4c-6.6-0.3-13.1-0.9-19.6-1.6c-16.9-1.8-33.2-4.5-47.3-7.4c-5.2-1-10-2.1-14.5-3.1
		c-8.5-1.9-15.5-3.7-20.6-5c-5.8-1.5-9.1-2.5-9.1-2.5l-14.4,24.2l-7.5,12.6l-5.5,9.2l-1.5,2.4c-0.6-0.3-1.2-0.7-1.9-1
		c-9.8-5.4-19.8-10.3-30.1-14.7c-6.7-2.8-13.6-5.4-20.5-7.6h0c-2.6-0.8-5.3-1.6-7.9-2.3c0.8-2.2,1.7-4.5,2.5-6.7
		c1.6-4.2,3.2-8.5,4.9-12.8c3.6-9.3,7.3-18.8,11.1-28.2c3.1-7.7,6.3-15.4,9.5-23c1.5-3.5,4.5-6.6,8.7-9.3c2-1.3,4.1-2.4,6.3-3.4
		c12-5.5,29.8-9,49.3-11.3c1.6-0.2,3.2-0.4,4.9-0.5c16.2-1.7,33.3-2.6,49.4-3c8-0.2,15.8-0.3,23-0.3c2.3,0,4.6,0,6.8,0h0
		c5.9,0,11.4,0.1,16.2,0.2c0.9,0,1.8,0,2.7,0.1h0c0.6,0,1.2,0,1.8,0c10.5,0.3,17,0.6,17,0.6l2.5-19.6l0.5-4l0.5-3.8v0l0.1-0.5l0.4,0
		l7-0.1l58.5-1.1l31.9-0.6l-5.1,21.7l-8.4,35.8C712.3,452.8,740.5,448.4,740.3,453.2z"/>
	<path class="st2" d="M569.8,582.7c-2.4,1.2-4.8,2.4-7.2,3.6c-4,1.9-7.9,3.8-12,5.5c-6.7-3.8-13.3-7.8-19.9-11.8
		c-10.7-6.6-21.3-13.5-32-20.2c-1.6-1-3.2-2-4.8-3h0c-4.4-6.5-8.9-13.3-13.4-20.3c-0.1-0.1-0.1-0.2-0.2-0.3
		c-1.2-1.8-2.3-3.6-3.5-5.4c-7.2-11.3-14.5-23.1-21.5-35.1l17.8-8.3l33.2-15.5l5.7-2.7l16.4,32.4l14.7,28.9l3.3,6.4L569.8,582.7z"/>
	<path class="st7" d="M574.8,427.3l84.5-81.5l23.4-66.4l-34.6-15c-17.8,17-36.9,70-36.9,70l-58.2,74c-0.5,0.2-0.9,0.3-1.4,0.5
		c-8.4,3.7-12.2,13.5-8.5,22c3.7,8.4,13.5,12.2,22,8.5C570.2,437.2,573.8,432.7,574.8,427.3z"/>
	<g>
		<path class="st6" d="M638.5,271.8l43.8,13.9l0.2,0c16.3-2.7,29.9-29.4,38.3-51.3c5.8-15-1-31.9-15.5-38.7l0,0
			c-10.6-4.9-23-3.3-32,4l-22.5,18.4L638.5,271.8z"/>
	</g>
	<g>
		<path class="st6" d="M740.1,454.2l0.3-0.3c13.7-18.1-5-63.1-7.9-69.6l12.7-3.8l-2.2-24.2l-1.1-10.8l9.9-9.4l0-0.2l6.8-48.4l8.9-32
			c6.8-24.7-0.2-51.1-18.3-69.1L731,168.2l-21.8-34.1l-36.5-0.9l-13.1,23.3c-25.2,5.1-43.2,27.6-42.6,53.3l1.2,62.1l-13.1,77
			l-0.4,14l-12.9,13.6l2.4,13.7l-9.6,3.8l-4.7,19.5c-1.8,2.3-13.7,17.3-13.8,21.5c0,0.6,0.4,1.2,1.4,1.9c7.7,5.5,50.7,17.4,70,10.3
			c20.6-7.6,101.4,6.7,102.2,6.8L740.1,454.2z"/>
	</g>
	<circle class="st7" cx="687.8" cy="74.3" r="48.4"/>
	<path class="st2" d="M681.9,123.3c7.5,0.1,15-0.4,22.4-1.6c7.3-1.5,23.8-13.5,28.3-20.8l0,0c3.4-5.4,5.6-13.8,6.8-19.9
		c3.3-16.3-0.4-33.3-10.3-46.7c-1.9-2.8-4.5-5-7.5-6.4c-0.3-0.1-0.5-0.2-0.8-0.3c-4.4-1.2-8.4-3.6-11.4-7.1c-0.6-0.7-1.2-1.3-1.9-2
		c-3.4-2.9-7.4-4.9-11.8-5.9c-7-1.9-17.2,0-30.1,5.5c-6.5,2.8-13.7,1.8-19.2,0.6c-0.6-0.1-1.3,0.1-1.7,0.6c-2.3,2.2-5.4,3.4-8.6,3.4
		c-2,0.1-4,2.8-6.5,6.3c-0.6,0.8-1.2,1.7-1.7,2.3l-0.1-1.1l-1.1,1.2c-5.7,6.3-5.2,16,1.1,21.7c1.7,1.5,3.7,2.7,5.9,3.3
		c2,0.5,4,0.8,6,1c1.2,0.1,2.5,0.2,3.7,0.4c8,1.6,14.5,7.4,17.3,15.1c1.1,3.2,4.6,4.8,7.8,3.7c0.5-0.2,1-0.4,1.4-0.7
		c2.6-2,6-2.6,9.1-1.7c1.3,0.7,2.4,1.9,2.9,3.3c0.7,1.6,1.8,2.9,3.3,3.8c5,2.6,5.3,13.9,3.5,23.4c-1.7,9.1-5.1,15.7-8.3,16.1
		c-2.4,0.3-2.7,0.4-2.9,0.9l-0.2,0.4l0.3,0.4C679,123.3,680.4,123.4,681.9,123.3z"/>
	<path class="st7" d="M650.5,257.2l-18.7-37.2c-27.1,1.9-80.9,33.2-80.9,33.2l-101.7,21.6c-9.5-3.6-20.1,1.1-23.8,10.6
		c-3.6,9.5,1.1,20.1,10.6,23.8c6.1,2.4,13.1,1.3,18.2-2.9l129.4-9.3L650.5,257.2z"/>
	<g>
		<path class="st6" d="M643,263.3l48.8-36.2l8.6-30.9c3.4-12.4-0.5-25.7-10.2-34.2l0,0c-13.3-11.7-33.5-11-46,1.5
			c-18.3,18.3-39.3,43.9-34.8,61.6l0,0.2L643,263.3z"/>
	</g>
	<rect x="452.2" y="360.2" class="st8" width="130.4" height="17.4"/>
	<rect x="118.8" y="360.2" class="st8" width="130.4" height="17.4"/>
	<path class="st1" d="M264.5,276.5v82.8c0,2.2,1.8,4,4,4h122.7c2.2,0,4-1.8,4-4v-82.8c0-2.2-1.8-4-4-4H268.5
		C266.3,272.6,264.5,274.3,264.5,276.5z"/>
	<path class="st0" d="M267.4,277.6v80.8c0,1.2,1,2.1,2.1,2.1h120.7c1.2,0,2.1-1,2.1-2.1v-80.8c0-1.2-1-2.1-2.1-2.1H269.5
		C268.3,275.4,267.4,276.4,267.4,277.6z"/>
	<path class="st2" d="M261.9,375.5c0.5,0.6,1.1,0.9,1.9,0.9h131.4c1.3,0,2.4-1.1,2.4-2.4c0-0.2,0-0.3-0.1-0.5l-2-9.7
		c-0.2-0.8-0.7-1.5-1.5-1.8c-0.3-0.1-0.6-0.2-0.9-0.2H265.8c-0.3,0-0.6,0.1-0.9,0.2c-0.8,0.3-1.3,1-1.5,1.8l-2,9.7
		C261.3,374.2,261.5,374.9,261.9,375.5z"/>
	<path class="st1" d="M391.8,366h-3.1c-0.3,0-0.5-0.2-0.5-0.5v-1.5c0-0.3,0.2-0.5,0.5-0.5h3.1c0.3,0,0.5,0.2,0.5,0.5v1.5
		C392.2,365.8,392,366,391.8,366z"/>
	<path class="st1" d="M383.7,366h-3.1c-0.3,0-0.5-0.2-0.5-0.5v-1.5c0-0.3,0.2-0.5,0.5-0.5h3.1c0.3,0,0.5,0.2,0.5,0.5v1.5
		C384.2,365.8,383.9,366,383.7,366z"/>
	<path class="st1" d="M375.6,366h-3.1c-0.3,0-0.5-0.2-0.5-0.5v-1.5c0-0.3,0.2-0.5,0.5-0.5h3.1c0.3,0,0.5,0.2,0.5,0.5v1.5
		C376.1,365.8,375.8,366,375.6,366z"/>
	<path class="st1" d="M367.5,366h-3.1c-0.3,0-0.5-0.2-0.5-0.5v-1.5c0-0.3,0.2-0.5,0.5-0.5h3.1c0.3,0,0.5,0.2,0.5,0.5v1.5
		C368,365.8,367.8,366,367.5,366z"/>
	<path class="st1" d="M359.4,366h-3.1c-0.3,0-0.5-0.2-0.5-0.5v-1.5c0-0.3,0.2-0.5,0.5-0.5h3.1c0.3,0,0.5,0.2,0.5,0.5v1.5
		C359.9,365.8,359.7,366,359.4,366z"/>
	<path class="st1" d="M351.3,366h-3.1c-0.3,0-0.5-0.2-0.5-0.5v-1.5c0-0.3,0.2-0.5,0.5-0.5h3.1c0.3,0,0.5,0.2,0.5,0.5v1.5
		C351.8,365.8,351.6,366,351.3,366z"/>
	<path class="st1" d="M343.2,366h-3.1c-0.3,0-0.5-0.2-0.5-0.5v-1.5c0-0.3,0.2-0.5,0.5-0.5h3.1c0.3,0,0.5,0.2,0.5,0.5v1.5
		C343.7,365.8,343.5,366,343.2,366z"/>
	<path class="st1" d="M335.1,366H332c-0.3,0-0.5-0.2-0.5-0.5v-1.5c0-0.3,0.2-0.5,0.5-0.5h3.1c0.3,0,0.5,0.2,0.5,0.5v1.5
		C335.6,365.8,335.4,366,335.1,366z"/>
	<path class="st1" d="M327,366h-3.1c-0.3,0-0.5-0.2-0.5-0.5v-1.5c0-0.3,0.2-0.5,0.5-0.5h3.1c0.3,0,0.5,0.2,0.5,0.5v1.5
		C327.5,365.8,327.3,366,327,366z"/>
	<path class="st1" d="M318.9,366h-3.1c-0.3,0-0.5-0.2-0.5-0.5v-1.5c0-0.3,0.2-0.5,0.5-0.5h3.1c0.3,0,0.5,0.2,0.5,0.5v1.5
		C319.4,365.8,319.2,366,318.9,366z"/>
	<path class="st1" d="M310.8,366h-3.1c-0.3,0-0.5-0.2-0.5-0.5v-1.5c0-0.3,0.2-0.5,0.5-0.5h3.1c0.3,0,0.5,0.2,0.5,0.5v1.5
		C311.3,365.8,311.1,366,310.8,366z"/>
	<path class="st1" d="M302.7,366h-3.1c-0.3,0-0.5-0.2-0.5-0.5v-1.5c0-0.3,0.2-0.5,0.5-0.5h3.1c0.3,0,0.5,0.2,0.5,0.5v1.5
		C303.2,365.8,303,366,302.7,366z"/>
	<path class="st1" d="M294.6,366h-3.1c-0.3,0-0.5-0.2-0.5-0.5v-1.5c0-0.3,0.2-0.5,0.5-0.5h3.1c0.3,0,0.5,0.2,0.5,0.5v1.5
		C295.1,365.8,294.9,366,294.6,366z"/>
	<path class="st1" d="M286.5,366h-3.1c-0.3,0-0.5-0.2-0.5-0.5v-1.5c0-0.3,0.2-0.5,0.5-0.5h3.1c0.3,0,0.5,0.2,0.5,0.5v1.5
		C287,365.8,286.8,366,286.5,366z"/>
	<path class="st1" d="M278.5,366h-3.1c-0.3,0-0.5-0.2-0.5-0.5v-1.5c0-0.3,0.2-0.5,0.5-0.5h3.1c0.3,0,0.5,0.2,0.5,0.5v1.5
		C278.9,365.8,278.7,366,278.5,366z"/>
	<path class="st1" d="M270.4,366h-3.1c-0.3,0-0.5-0.2-0.5-0.5v-1.5c0-0.3,0.2-0.5,0.5-0.5h3.1c0.3,0,0.5,0.2,0.5,0.5v1.5
		C270.8,365.8,270.6,366,270.4,366z"/>
	<path class="st1" d="M391.9,370.1h-3.1c-0.3,0-0.5-0.2-0.5-0.5v-1.5c0-0.3,0.2-0.5,0.5-0.5h3.1c0.3,0,0.5,0.2,0.5,0.5v1.5
		C392.3,369.9,392.1,370.1,391.9,370.1z"/>
	<path class="st1" d="M383.8,370.1h-3.1c-0.3,0-0.5-0.2-0.5-0.5v-1.5c0-0.3,0.2-0.5,0.5-0.5h3.1c0.3,0,0.5,0.2,0.5,0.5v1.5
		C384.2,369.9,384,370.1,383.8,370.1z"/>
	<path class="st1" d="M375.7,370.1h-3.1c-0.3,0-0.5-0.2-0.5-0.5v-1.5c0-0.3,0.2-0.5,0.5-0.5h3.1c0.3,0,0.5,0.2,0.5,0.5v1.5
		C376.2,369.9,375.9,370.1,375.7,370.1z"/>
	<path class="st1" d="M367.6,370.1h-3.1c-0.3,0-0.5-0.2-0.5-0.5v-1.5c0-0.3,0.2-0.5,0.5-0.5h3.1c0.3,0,0.5,0.2,0.5,0.5v1.5
		C368.1,369.9,367.8,370.1,367.6,370.1z"/>
	<path class="st1" d="M359.5,370.1h-3.1c-0.3,0-0.5-0.2-0.5-0.5v-1.5c0-0.3,0.2-0.5,0.5-0.5h3.1c0.3,0,0.5,0.2,0.5,0.5v1.5
		C360,369.9,359.8,370.1,359.5,370.1z"/>
	<path class="st1" d="M351.4,370.1h-3.1c-0.3,0-0.5-0.2-0.5-0.5v-1.5c0-0.3,0.2-0.5,0.5-0.5h3.1c0.3,0,0.5,0.2,0.5,0.5v1.5
		C351.9,369.9,351.7,370.1,351.4,370.1z"/>
	<path class="st1" d="M343.3,370.1h-3.1c-0.3,0-0.5-0.2-0.5-0.5v-1.5c0-0.3,0.2-0.5,0.5-0.5h3.1c0.3,0,0.5,0.2,0.5,0.5v1.5
		C343.8,369.9,343.6,370.1,343.3,370.1z"/>
	<path class="st1" d="M335.2,370.1h-3.1c-0.3,0-0.5-0.2-0.5-0.5v-1.5c0-0.3,0.2-0.5,0.5-0.5h3.1c0.3,0,0.5,0.2,0.5,0.5v1.5
		C335.7,369.9,335.5,370.1,335.2,370.1z"/>
	<path class="st1" d="M327.1,370.1H324c-0.3,0-0.5-0.2-0.5-0.5v-1.5c0-0.3,0.2-0.5,0.5-0.5h3.1c0.3,0,0.5,0.2,0.5,0.5v1.5
		C327.6,369.9,327.4,370.1,327.1,370.1z"/>
	<path class="st1" d="M319,370.1h-3.1c-0.3,0-0.5-0.2-0.5-0.5v-1.5c0-0.3,0.2-0.5,0.5-0.5h3.1c0.3,0,0.5,0.2,0.5,0.5v1.5
		C319.5,369.9,319.3,370.1,319,370.1z"/>
	<path class="st1" d="M310.9,370.1h-3.1c-0.3,0-0.5-0.2-0.5-0.5v-1.5c0-0.3,0.2-0.5,0.5-0.5h3.1c0.3,0,0.5,0.2,0.5,0.5v1.5
		C311.4,369.9,311.2,370.1,310.9,370.1z"/>
	<path class="st1" d="M302.8,370.1h-3.1c-0.3,0-0.5-0.2-0.5-0.5v-1.5c0-0.3,0.2-0.5,0.5-0.5h3.1c0.3,0,0.5,0.2,0.5,0.5v1.5
		C303.3,369.9,303.1,370.1,302.8,370.1z"/>
	<path class="st1" d="M294.7,370.1h-3.1c-0.3,0-0.5-0.2-0.5-0.5v-1.5c0-0.3,0.2-0.5,0.5-0.5h3.1c0.3,0,0.5,0.2,0.5,0.5v1.5
		C295.2,369.9,295,370.1,294.7,370.1z"/>
	<path class="st1" d="M286.6,370.1h-3.1c-0.3,0-0.5-0.2-0.5-0.5v-1.5c0-0.3,0.2-0.5,0.5-0.5h3.1c0.3,0,0.5,0.2,0.5,0.5v1.5
		C287.1,369.9,286.9,370.1,286.6,370.1z"/>
	<path class="st1" d="M278.6,370.1h-3.1c-0.3,0-0.5-0.2-0.5-0.5v-1.5c0-0.3,0.2-0.5,0.5-0.5h3.1c0.3,0,0.5,0.2,0.5,0.5v1.5
		C279,369.9,278.8,370.1,278.6,370.1z"/>
	<path class="st1" d="M270.5,370.1h-3.1c-0.3,0-0.5-0.2-0.5-0.5v-1.5c0-0.3,0.2-0.5,0.5-0.5h3.1c0.3,0,0.5,0.2,0.5,0.5v1.5
		C270.9,369.9,270.7,370.1,270.5,370.1z"/>
	<path class="st1" d="M353,374.9h-31.4c-0.3,0-0.5-0.2-0.5-0.5V373c0-0.3,0.2-0.5,0.5-0.5H353c0.3,0,0.5,0.2,0.5,0.5v1.5
		C353.5,374.7,353.3,374.9,353,374.9z"/>
</g>
</svg>
